<svg width="40" height="40" viewBox="0 0 40 40" fill="none" xmlns="http://www.w3.org/2000/svg">
<rect y="40" width="40" height="40" rx="12" transform="rotate(-90 0 40)" fill="#171717" fill-opacity="0.05"/>
<path d="M19.3609 13.9582C18.8554 13.2587 17.9121 13.1273 17.2541 13.6648C16.5961 14.2022 16.4726 15.205 16.9781 15.9046L20.6397 20.9711C21.1453 21.6706 22.0885 21.802 22.7465 21.2645C23.4045 20.7271 23.5281 19.7243 23.0225 19.0247L19.3609 13.9582Z" fill="#3A3A3C"/>
<path d="M16.9829 24.0983C16.4782 24.7985 16.603 25.8012 17.2616 26.3378C17.9202 26.8744 18.8633 26.7417 19.368 26.0415L23.0236 20.9701C23.5283 20.2698 23.4036 19.2672 22.7449 18.7306C22.0863 18.194 21.1432 18.3267 20.6385 19.0269L16.9829 24.0983Z" fill="#3A3A3C"/>
</svg>
